# xmcd
#
# Track frame offsets:
# 150
# 17742
# 31931
# 48251
# 66080
# 77932
# 90909
# 106132
# 120600
# 133633
# 151697
# 161673
# 180661
#
# Disc length: 2548 seconds
#
#
# Revision: 0
# Processed by: cddbd v1.5.2PL0 Copyright (c) Steve Scherf et al.
# Submitted via: FreeRIP 2.951 
#
DISCID=9509f20d
DTITLE=Ernst und Heinrich - Noh mee Haii
DYEAR=2002
DGENRE=
TTITLE0=Frisch ans Werk
TTITLE1=Mir Schwaben
TTITLE2=Nex verkomma lassa
TTITLE3=Valse de Cliché
TTITLE4=Älles nix
TTITLE5=Dürdsu!
TTITLE6=Dr Mensch
TTITLE7=Noh mee haii
TTITLE8=Such such such
TTITLE9=Bluesle
TTITLE10=Ragazze
TTITLE11=Furtschmeissa
TTITLE12=Alter Huat
EXTD=schwäbisch zum Ablachen
EXTT0=
EXTT1=
EXTT2=
EXTT3=
EXTT4=
EXTT5=
EXTT6=
EXTT7=
EXTT8=
EXTT9=
EXTT10=
EXTT11=
EXTT12=
PLAYORDER=
